/* XPM */
static char *result[] = {
/* columns rows colors chars-per-pixel */
"64 64 13 1 ",
"  c #636917",
". c #656C17",
"X c #686F16",
"o c #72751B",
"O c #787B21",
"+ c #A2783C",
"@ c #7F8124",
"# c #7F8226",
"$ c #A2814F",
"% c #BD9842",
"& c #C6A740",
"* c #9CA8AD",
"= c #B3B0A9",
/* pixels */
"ooooooo#oooooooooooooooooooooooooooooOOOoO#ooooooooooooooooooooo",
"oo##OooOOooooooooooooooooooooooooo#OO.OOOO.ooooooooooooooooooooo",
"ooo#OOo.Ooo#oooooooooooooooooooooooOO%%.OO.ooooooooooooooooooooo",
"ooo.OO**oOO.ooooooooooooooooooooooo.%++%O.oooooooooooooooooooooo",
"oo#O.O$*oOO.oooooooooooooooooooooooo %% o&&ooooooooooooooooooooo",
"oo.==.  o..ooooooooooooooooooooooo&&o  oo+&ooooooooooo#Ooooooooo",
"oo=$$=.==oooooooooooooooooooooooo&++&oooo  oooooo#OooO#.oooooooo",
"oo == =$=oooooooooooooooooooooooo && oooooooooooo.OOoOOooooooooo",
"ooo  o== ooooooooooooooooooooooooo  oooooooooooooo.OOO.ooooooooo",
"oooooo  oooooooooooooooooooooooooooooooooooooooooo.OO.oooooooooo",
"ooooooooooooooooooooooooooooooooooooooooooooooooooo.Oooooooooooo",
"oooooooooooooooooooooooooooooooooooooooooooooooooooooooooooooooo",
"oooooooooooooooooooooooooooooooooooooooooooooooooooooooooooooooo",
"oooooooooooooooooooooooooooooooooooooooooooooooooooooooooooooooo",
"ooooooooooooooooooooooo##ooooooooooooooooooooooooooooooooooooooo",
"oooooooooooooooooOoooOO#oooooooooooooooooooooooooooooooooooooooo",
"oooooooooooooooooo##oOO.oooooooooooooooooooooooooooooooooooooooo",
"oooooooooooooooooo#OO..ooooooooooooooooooooooooooooooooooooooooo",
"oooooooooooooooooo.OOooooooooooooooooooooooooooooooooooooooooooo",
"ooooooooooooooooooo.oooooooooooooooooooooooooooooooooooooooooooo",
"oooooooooooooooooooooooooooooooooooooooooooooooooooooooooooooooo",
"oooooooooooooooooooooooooooooooooooooooooooooooooooooooooooooooo",
"oooooooooooooooooooooooooooooooooooooooooooooooooooooooooooooooo",
"oooooooooooooooooooooooooooooooooooooooooooooooooooooooooooooooo",
"oooooooooooooooooooooooooooooooooooooooooooooooooooooooooooooooo",
"oooooooooooooooooooooooooooooooooooooooooooooooooooooooooooooooo",
"oooooooooooooooooooooooooooooooooooooooooooooooooooooooooooooooo",
"oooooooooooooooooooooooooooooooooooooooooooooooooooooooooooooooo",
"oooooooooooooooooooooooooooooooooooooooooooooooooooooooooooooooo",
"oooooooooooooooooooooooooooooooooooooooooooooooooooooooooooooooo",
"OO##oooooooooooooooooooooooooooooooooooooooooooooooooooooooooooo",
"OOoooooooooooooooooooooooooooooooooooooooooooooooooooooooooooooo",
"O.oooooooooooooooooooooooooooooooooooooooooooooooooooooooooooooo",
".ooooooooooooooooooooooooooooooooooooooooooooooooooooooooooooooo",
"oooooooooooooooooooooooooooooooooooooooooooooooooooooooooooooooo",
"oooooooooooooooooooooooooooooooooooooooooooooooooooooooooooooooo",
"ooooooooooooooooooooooooooooooo@oooooooooooooooooooooooooooooooo",
"ooooooooo#ooooooooooooooooooooOOoo@OOooooooooooooooooooooooooooo",
"oooooooo#oooooooooooooooooo@ooOXoO@@oooooooooooooooooooooooooooo",
"oooooooOOooooooooooooooooooo@OXoOO@Xoooooooooooooooooooooooooooo",
"oooooooOO.oooooooooooooooooXOOooOOXO@ooooooooooooooooooooooooooo",
"ooooooo..O#oooooooooooooooooXOoo==OOXooooooooooooooooooooooooooo",
"oooooooooOOooooooooooooooooooXo=$$=Xoooooooooooooooooooooooooooo",
"ooooooooo..oooooooooooooooooooo == ooooooooooooooooooooooooooooo",
"ooooooooooooooooooooooooooooo=$o  oooooooooooooooooooooooooooooo",
"ooooooooooooooooooooooooooooo==ooooooooooooooooooooooooooooooooo",
"ooooooooooooooooooooooooooooo  ooooooooooooooooooooooooooooooooo",
"oooooooooooooooooooooooooooooooooooooooooooooooooooooooooooooooo",
"oooooooooooooooooooooooooooooooooooooooooooooooooooooooooooooooo",
"oooooooooooooooooooO@@oooooooooooooooooooooooooooooooooooooooooo",
"oooooooooooooooooooo@OOooooooooooooooooooooooooooooooooooooooooo",
"ooooooooooooooooooooXOOooooooooooooooooooooooooooooooooooooooooo",
"oooooooooooooooooooooXXooooooooooooooooooooooooooooooooooooooooo",
"oooooooooooooooooooooooooooooooooooooooooooooooooooooooooooooooo",
"oooooooooooooooooooooooooooooooooooooooooooooooooooooooooooooooo",
"oooooooooooooooooooooooooooooooooooooooooooooooooooooooooooooooo",
"oooooooooooooooooooooooooooooooooooooooooooooooooooooooooooooooo",
"oooooooooooooooooooooooooooooooooooooooooooooooooooooooooooooooo",
"ooooooooooooooooooooooooooooooooooooooooooOooooooooooooooooooooo",
"ooooooooooooooooooooooooooooooooooooooooo@@ooooooooooooooooooooo",
"ooooooooooooooooooooooooooooooooooooooooO@Xooooooooooooooooooooo",
"ooooooooooooooooooooooooooooooooooooooooOOoooooooooooooooooooooo",
"ooooooooooooooooooooooooooooooooooooooooXXoooooooooooooooooooooo",
"oooooooooooooooooooooooooooooooooooooooooooooooooooooooooooooooo"
};
