/* XPM */
static char *_a2fda5785c747d9bc490d076b41387aax381vJ1owyzzQm3[] = {
/* columns rows colors chars-per-pixel */
"64 64 206 2 ",
"   c None",
".  c #323539",
"X  c #333539",
"o  c #333639",
"O  c #32353A",
"+  c #33353A",
"@  c #32363A",
"#  c #33363A",
"$  c #35373C",
"%  c #39383E",
"&  c #39393F",
"*  c #3B3942",
"=  c #3B3E43",
"-  c #3C3C40",
";  c #3D3C43",
":  c #3E3C42",
">  c #3F3D44",
",  c #403E44",
"<  c #413E46",
"1  c #423F46",
"2  c #433F47",
"3  c #3D4349",
"4  c #3E4348",
"5  c #3E434A",
"6  c #414049",
"7  c #40454A",
"8  c #42464A",
"9  c #504855",
"0  c #534954",
"q  c #5D4D5F",
"w  c #4A5157",
"e  c #46525C",
"r  c #4C545A",
"t  c #505457",
"y  c #5C505D",
"u  c #5B4F60",
"i  c #4F5A63",
"p  c #5F5260",
"a  c #575D60",
"s  c #5A5E61",
"d  c #685968",
"f  c #6A5969",
"g  c #6D5C6C",
"h  c #5C6063",
"j  c #57616D",
"k  c #556773",
"l  c #5E6E7A",
"z  c #5E707C",
"x  c #606569",
"c  c #676D71",
"v  c #676E71",
"b  c #636E75",
"n  c #7C677A",
"m  c #7E697B",
"M  c #567081",
"N  c #5E7D90",
"B  c #6E7F8B",
"V  c #6F7D8C",
"C  c #6D7E8C",
"Z  c #8B5D81",
"A  c #98638D",
"S  c #8D748A",
"D  c #8F758C",
"F  c #947990",
"G  c #967B92",
"H  c #9D7F98",
"J  c #B875A9",
"K  c #C17BB1",
"L  c #7D828E",
"P  c #7F848F",
"I  c #6D8292",
"U  c #6D8598",
"Y  c #708392",
"T  c #728898",
"R  c #7E97A8",
"E  c #79A3BE",
"W  c #868E92",
"Q  c #808E97",
"!  c #90999D",
"~  c #9B9C9E",
"^  c #8097A9",
"/  c #829BAE",
"(  c #959EA2",
")  c #829FB2",
"_  c #AF8DA9",
"`  c #B491AE",
"'  c #BD95B5",
"]  c #BE99B7",
"[  c #99A3A7",
"{  c #88A3B7",
"}  c #A5ADB0",
"|  c #A9B4B8",
" . c #CA80B9",
".. c #CF82BD",
"X. c #8FABC0",
"o. c #94AFC1",
"O. c #92AFC4",
"+. c #82B1CD",
"@. c #9AB2C4",
"#. c #95B3C8",
"$. c #83B3D0",
"%. c #8DBDD9",
"&. c #8FBDDB",
"*. c #9BBAD0",
"=. c #9EBED4",
"-. c #A8BDC8",
";. c #DB89C8",
":. c #E28ECE",
">. c #E690D2",
",. c #F096DB",
"<. c #C8A1C0",
"1. c #D9AED1",
"2. c #F79AE1",
"3. c #F69BE2",
"4. c #F79BE2",
"5. c #F89DE2",
"6. c #F89EE2",
"7. c #F7A1E4",
"8. c #F7A3E4",
"9. c #F8A0E3",
"0. c #F8A2E4",
"q. c #F8A3E4",
"w. c #F9A4E5",
"e. c #F9A6E6",
"r. c #F9A7E6",
"t. c #F8A8E6",
"y. c #F9A8E6",
"u. c #FAAAE7",
"i. c #F9ADE7",
"p. c #FAACE8",
"a. c #FAADE8",
"s. c #F9AFE9",
"d. c #FAAFE8",
"f. c #E9BBE0",
"g. c #EDBEE4",
"h. c #FAB0E9",
"j. c #FBB0EA",
"k. c #FBB4EB",
"l. c #FBB5EB",
"z. c #FBB6EB",
"x. c #FBB6EC",
"c. c #FBB8EC",
"v. c #FBB9ED",
"b. c #FCBBED",
"n. c #FBBCEE",
"m. c #FCBCEE",
"M. c #FCBDEE",
"N. c #FCBEEE",
"B. c #FCBFEF",
"V. c #9EC5DF",
"C. c #A1C1D8",
"Z. c #A3C5DC",
"A. c #A6C8E0",
"S. c #A0C9E5",
"D. c #A4CAE5",
"F. c #A9CBE3",
"G. c #AACEE7",
"H. c #A6CEE9",
"J. c #A6CEEA",
"K. c #AED1EA",
"L. c #ABD2ED",
"P. c #B0D4EE",
"I. c #B3D7F1",
"U. c #B5DAF4",
"Y. c #B7DBF5",
"T. c #C3C3C3",
"R. c #C8C8C8",
"E. c #C9D2D5",
"W. c #C9D5DA",
"Q. c #D0D0D0",
"!. c #D5D5D6",
"~. c #D9DADA",
"^. c #D2DFE4",
"/. c #F1C1E8",
"(. c #F5C4EB",
"). c #F8C6EE",
"_. c #FCC0F0",
"`. c #FDC1F0",
"'. c #FCC2F0",
"]. c #FDC2F0",
"[. c #FDC4F1",
"{. c #FEC5F2",
"}. c #FDC7F2",
"|. c #FEC6F2",
" X c #FCC9F2",
".X c #FDC8F3",
"XX c #FEC8F3",
"oX c #FECBF3",
"OX c #FECAF4",
"+X c #FFCBF4",
"@X c #FFCCF5",
"#X c #D5E2E7",
"$X c #D8E5EA",
"%X c #D1EAF9",
"&X c #D3EDFE",
"*X c #D4EEFE",
"=X c #D7F0FF",
"-X c #E2E2E2",
";X c #E9E9EA",
":X c gray93",
">X c #E3EDF0",
",X c gray94",
"<X c #F1F1F1",
"1X c gray99",
"2X c #FEFEFE",
"3X c white",
/* pixels */
"                                                                                                                                ",
"                                                                                                                                ",
"                                          o o o # # o # o # o o # # # # # # # # o o o                                           ",
"                                          o b -.-.@.X.X.X.X.X.X.X.X.X.X.X.X.o.-.C.P o o                                         ",
"                                        o o %X=X=XU.U.U.U.U.U.U.U.U.U.U.U.U.U.*X=X=X3 o                                         ",
"                                        o = =X=X=XU.U.U.U.F./ V V R Z.U.U.U.U.&X=X=Xr o                                         ",
"                                        o = =X=X=XU.U.U.O.8 a ! ( v # { U.U.U.&X=X=Xr o                                         ",
"                                        o = =X=X=XU.U.A.8 W ^.$X$X$X} o #.U.U.&X=X=Xr o                                         ",
"                                        # = =X=X=XU.U.I x #X$X$X$X>X2X~ i U.U.&X=X=Xr o                                         ",
"                                        # = =X=X=XU.U.w [ $X#Xv s <X2X~.o K.U.&X=X=Xr o                                         ",
"                                        # = =X=X=XU.U.# | $XW.# o ~.2X-Xo A.U.&X=X=Xr o                                         ",
"                                        o = =X=X=XU.U.l W $X>XQ.R.2X2XR.3 I.U.&X=X=Xr #                                         ",
"                                        # = =X=X=XU.U.) o E.2X2X2X2X<Xt U U.U.&X=X=Xr @                                         ",
"                                        # = =X=X=XU.U.I.k 8 T.;X:X!.h e G.U.U.&X=X=Xr @                                         ",
"                                        # = =X=X=XU.U.U.D.N # # # # M V.U.U.U.&X=X=Xr @                                         ",
"                                        o = =X=X=XU.U.U.U.J.$.E E +.S.U.U.U.U.*X=X=Xr o                                         ",
"                                        o = =X=X=XU.U.U.U.U.L.&.&.J.U.U.U.U.U.&X=X=Xr @                                         ",
"                                        o $ P P P V V V Y U.U.U.I.U.U.R V V V L P P 4 @                                         ",
"                                        o 0 ] ] ] J J A o U.U.U.U.U.Y.k Z J J ' ] ] g @                                         ",
"                                        o d @X@X@X2.2. .o U.U.U.U.U.Y.s J 2.2.}.@XoXD @                                         ",
"                                        o d @X@X@X2.2. .# U.U.U.U.U.U.j J 2.2.}.@X@XD o                                         ",
"                                        o d @X@X@X2.2. .# U.U.U.U.U.U.j J 2.2.}.@X@XD o                                         ",
"                                        o d @X@X@X2.2. .# U.U.U.U.U.U.j J 2.2.}.@X@XD o                                         ",
"                                        o d @X@X@X2.2. .# U.U.U.U.U.U.j J 2.2.}.@X@XD @                                         ",
"                                        o d @X@X@X2.2. .# U.U.U.U.U.U.j J 3.3.{.@X@XD @                                         ",
"                                        o d @X@X@X2.2. .# U.U.U.U.U.U.j J 3.3.{.@X@XD @                                         ",
"                                        o d @X@X@X2.2. .# U.U.U.U.U.U.j J 2.2.{.@X@XD @                                         ",
"                                        o d @X@X@X2.2.;.o A.U.U.U.U.P.5 K 2.2.{.@X@XD @                                         ",
"                                        o d @X@X@X2.2.,.u z *.C.C.=.T 2 >.2.2.{.@X@XD @                                         ",
"                                        o d @X@X@X2.2.2.;.q o o # # 9 ..2.2.2.{.@X@XD @                                         ",
"                                        o d @X@X@X2.2.2.2.2.>.;.;.:.2.2.2.2.2.{.@X@XD o                                         ",
"                                        o d @X@X@X2.2.2.2.2.2.2.3.3.2.2.2.2.2.{.@X@XD o                                         ",
"                                        o d @X@X@X2.2.2.2.2.2.2.2.2.2.2.2.2.2.{.@X@XD @                                         ",
"                                        o d @X@X@X2.2.2.2.2.2.2.2.2.2.2.2.2.2.{.@X@XD @                                         ",
"                                        o d @X@X@X2.2.2.2.2.2.2.2.2.2.2.2.2.2.{.@X@XD @                                         ",
"                                        o d @X@X@X2.2.2.2.2.2.2.2.2.2.2.2.2.2.{.@X@XD @                                         ",
"                                        o d @X@X@X2.2.2.2.2.2.2.2.2.2.2.2.2.2.{.@X@XD o                                         ",
"                                        o d @X@X@X2.2.2.2.2.2.2.2.2.2.2.2.2.5.{.@X@XD o                                         ",
"                                        o d @X@X@X2.2.2.2.2.2.2.2.2.2.2.2.2.2.{.@X@XD o                                         ",
"                                        > H @X@X}.2.2.2.2.2.2.2.2.2.2.2.2.2.2.m.@X@X<.*                                         ",
"                                        o g.XXOXx.2.2.2.2.2.2.2.2.2.2.2.2.2.2.i.@X@X X2 o                                       ",
"                                      * W XXOXOXw.2.2.2.2.2.2.2.2.2.2.2.2.2.2.4.@X@X@X` &                                       ",
"                                      o g.@XOXXX2.2.2.2.2.2.2.2.2.2.2.2.2.2.2.2.m.@X@X(.2 o                                     ",
"                                    2 S OXOXOXv.2.2.2.2.2.2.2.2.2.2.2.2.2.2.2.2.h.@X@X@X` *                                     ",
"                                    # 1.@X@X@Xt.2.2.2.2.2.2.2.2.2.2.2.2.2.2.2.2.9.@X@X@X(.2 #                                   ",
"                                  2 m @X@X@XOX3.2.2.2.2.2.2.2.2.2.2.4.m.oXx.2.2.2.).@X@X@X` >                                   ",
"                                  # 1.@X@X@Xn.3.4.4.4.2.2.2.2.2.2.2.s.@X@X@Xw.2.2.k.@X@X@Xg.o                                   ",
"                                * n @X@X@X@Xu.3.4.c.c.2.2.2.2.2.2.2.w.@X@XoX4.4.2.6.@X@X@X@XH >                                 ",
"                                o 1.@X@X@X@X6.2.2.3.4.2.2.2.2.2.2.2.2.s.c.t.2.2.2.2.{.@X@X@Xf.o                                 ",
"                              * p  X@X@X@XB.2.2.2.2.2.2.2.2.2.8.2.2.2.2.2.2.2.2.2.2.c.@X@X@X@XH >                               ",
"                              o <.@X@X@X@Xj.2.2.2.2.2.2.2.2.`.@Xs.2.2.2.2.2.2.2.2.2.w.@X@X@X@Xf.o                               ",
"                            * p  X@X@X@X@X6.2.2.2.2.2.2.2.4.{.@Xk.2.2.2.2.2.2.2.2.2.2.{.@X@X@X@XF 2                             ",
"                            o <.@X@X@X@X`.2.2.2.2.2.2.2.2.2.0.s.5.2.2.2.2.2.2.2.2.2.2.m.@X@X@X@X1.o                             ",
"                          o q @X@X@X@X@Xx.2.2.2.2.2.2.2.2.2.2.2.2.2.2.2.2.2.2.2.2.2.2.u.@X@X@X@X@Xm 2                           ",
"                          % ] @X@X@X@X@X8.2.2.2.2.2.2.2.2.2.2.2.2.2.2.2.2.2.2.2.2.2.2.4.@X@X@X@X@X1.o                           ",
"                        o 2 (.@X@X@X@X}.2.2.2.2.2.2.2.e.2.2.2.2.2.2.2.2.2.2.2.2.2.2.2.2.m.@X@X@X@X@Xm =                         ",
"                        & ` @X@X@X@X@Xc.2.2.2.2.2.2.`.@X}.2.2.2.2.2.2.2.2.2.2.n.w.5.2.2.s.@X@X@X@X@X1.$                         ",
"                      # 2 (.@X@X@X@X@Xw.2.2.2.2.2.2. X@X@X4.2.2.2.2.2.2.2.2.2.}.s.2.2.2.5.@X@X@X@X@X@Xd *                       ",
"                      = ` @X@X@X@X@X@X2.2.2.2.2.2.2.w.n.u.2.2.2.2.2.2.2.2.2.2.2.2.2.2.2.2.`.@X@X@X@X@X<.o                       ",
"                      o 1.@X@X@X@X@X}.2.2.2.2.2.2.2.2.2.2.2.2.2.2.2.2.2.2.2.2.2.2.2.2.2.2.m.@X@X@X@X@X/.o                       ",
"                      2 G (.@X@X@X@X@X3.2.2.2.2.2.2.2.2.2.2.2.2.2.2.2.2.2.2.2.2.2.2.2.2.2.{.@X@X@X@X}._ o                       ",
"                        & o o o # # o # # # # # o # # # # # # # # # # # o # # # # # # # # # o o o # o o                         ",
"                                                                                                                                ",
"                                                                                                                                "
};
