/* XPM */
static char *_2d59cbc2fce43bc956c9fcb5a398266l2Fglnl4xkGsCgW8[] = {
/* columns rows colors chars-per-pixel */
"64 64 200 2 ",
"   c None",
".  c #000000",
"X  c #0D0409",
"o  c #0A0207",
"O  c #150A08",
"+  c #190F0A",
"@  c #160A05",
"#  c #041309",
"$  c #131A03",
"%  c #1A110C",
"&  c #17120C",
"*  c #0C0713",
"=  c #090C1B",
"-  c #0C0816",
";  c #190712",
":  c #071318",
">  c #071315",
",  c #151515",
"<  c #1B1611",
"1  c #1C1813",
"2  c #1B1D1D",
"3  c #171F10",
"4  c #200B11",
"5  c #291612",
"6  c #311E13",
"7  c #2C1408",
"8  c #1A2817",
"9  c #33251B",
"0  c #322015",
"q  c #262C09",
"w  c #16142D",
"e  c #15142F",
"r  c #16232D",
"t  c #352D23",
"y  c #262727",
"u  c #5D1A41",
"i  c #6A1E4A",
"p  c #751F53",
"a  c #6D2149",
"s  c #762153",
"d  c #7B2552",
"f  c #7F2B53",
"g  c #782842",
"h  c #8B3938",
"j  c #8A3937",
"k  c #9B3F3F",
"l  c #9B453C",
"z  c #A4453A",
"x  c #B94E3F",
"c  c #B64D3F",
"v  c #D66806",
"b  c #F87907",
"n  c #E76D11",
"m  c #ED7210",
"M  c #E97106",
"N  c #C25437",
"B  c #862C4D",
"V  c #973C41",
"C  c #822A51",
"Z  c #873558",
"A  c #A33F4A",
"S  c #9F4140",
"D  c #904A4D",
"F  c #914256",
"G  c #AE4746",
"H  c #AA4448",
"J  c #AC4747",
"K  c #B14946",
"L  c #B84E40",
"P  c #B14948",
"I  c #B04746",
"U  c #B05C42",
"Y  c #A44C5C",
"T  c #B95952",
"R  c #B75751",
"E  c #AC5948",
"W  c #AB6944",
"Q  c #B56E48",
"!  c #B57352",
"~  c #A4586C",
"^  c #C4794E",
"/  c #C1764D",
"(  c #C47E54",
")  c #CD7A55",
"_  c #D07E54",
"`  c #C36E55",
"'  c #1C8C3F",
"]  c #359C49",
"[  c #36A454",
"{  c #1E8E40",
"}  c #54C06D",
"|  c #84B617",
" . c #94BB1E",
".. c #94CD1A",
"X. c #95CD17",
"o. c #97D11B",
"O. c #A7E71D",
"+. c #A9E71C",
"@. c #A8E91C",
"#. c #A7E81D",
"$. c #B2E81A",
"%. c #89C52C",
"&. c #9ADD2F",
"*. c #9CD02D",
"=. c #A9D523",
"-. c #9DE12F",
";. c #9CE130",
":. c #A6E620",
">. c #B3E737",
",. c #ACE42C",
"<. c #E3E91A",
"1. c #EEF006",
"2. c #D5E131",
"3. c #BFA37D",
"4. c #BC8261",
"5. c #C78055",
"6. c #CA8357",
"7. c #D8875A",
"8. c #E68D5C",
"9. c #DE8F60",
"0. c #DB9166",
"q. c #E29463",
"w. c #E39868",
"e. c #C0A47E",
"r. c #D0BA7F",
"t. c #90D844",
"y. c #573489",
"u. c #623B9B",
"i. c #5E3FA1",
"p. c #3C54BE",
"a. c #5F41A5",
"s. c #6040A4",
"d. c #6B46B5",
"f. c #6B48B8",
"g. c #6949BA",
"h. c #445DD5",
"j. c #495ACB",
"k. c #684DC0",
"l. c #4560DA",
"z. c #5967DE",
"x. c #546CD5",
"c. c #4E67EB",
"v. c #5066EB",
"b. c #5565E3",
"n. c #4D6BF3",
"m. c #5B76EE",
"M. c #627DF5",
"N. c #3794B7",
"B. c #3283A4",
"V. c #439CA5",
"C. c #459CAA",
"Z. c #438AAA",
"A. c #56B7A9",
"S. c #4AAFBD",
"D. c #52AFBB",
"F. c #4BB1BD",
"G. c #55ADB6",
"H. c #65B8A4",
"J. c #3FA9D1",
"K. c #3DA7D2",
"L. c #3FA8CF",
"P. c #44A9CC",
"I. c #9F9F9F",
"U. c #8D8D8D",
"Y. c #9396A5",
"T. c #A9A9AA",
"R. c #BABABA",
"E. c #D7AF87",
"W. c #D6B78D",
"Q. c #D9B98E",
"!. c #D7B186",
"~. c #DCBB90",
"^. c #CCA686",
"/. c #EBBD8E",
"(. c #E3B28D",
"). c #EBBF94",
"_. c #E7BE98",
"`. c #DBC793",
"'. c #ECC195",
"]. c #F0C797",
"[. c #F3CF9F",
"{. c #F2CB9B",
"}. c #F0C798",
"|. c #F5D09F",
" X c #EBD58E",
".X c #F4D0A0",
"XX c #F2D4A9",
"oX c #F1CBA1",
"OX c #B1B5C5",
"+X c #C5C5C5",
"@X c #D2DAD5",
"#X c #E2DAEC",
"$X c #E6E6E6",
"%X c #EBEEFE",
"&X c #E2E5F4",
"*X c #F6F6F6",
"=X c #FEFEFE",
"-X c #F9F8F7",
";X c #F5F8E5",
":X c #EAE4D1",
/* pixels */
"                                                                                                                                ",
"                                                                                                                                ",
"                                                        . .                                                                     ",
"                                                        . .                                                                     ",
"                                                    . . . .             . . . .                                                 ",
"                                                    O O X X             O O . .                                                 ",
"                                                . O h h a u X . . . . O h h O .                                                 ",
"                                                O 4 H H C i ; X O O X 7 H V O .                                                 ",
"                                . .         . @ h l H H d p i a V k k S I S O .                                                 ",
"                                . .         X 7 A I H H d s d B H I P I P k O .                                                 ",
"                                . .     . @ h A G H B d s d A H G P I P P k O .                                                 ",
"                                @ O     + 7 z P G H d s d B K c I I P G P V O .                                                 ",
"                            . O h h @ + v v c I K H s d A c n m L P G I P S O . . . . .                                         ",
"                            . @ z z 4 7 M b x I H H f B K N b b L G L L P l O . X X . .                                         ",
"                            . + v m g g M b x H C C A c m b b m x L m m L k O X u u X .                                         ",
"                            . + v m B B n n x A C C H c b b b b x L m m K V + ; i i X .                                         ",
"                    . . . . . O z x H H c L I I J J J P L N b b c I c K B d i i s i X .                                         ",
"                    . . . . @ 5 k H I I I I P I I I I I J L m m L I I H d p s s s i X .                                         ",
"                        . O h V C B H I G P I G I G G I I I L L I I P H d s p p s i X . . .                                     ",
"                        . O h V p d A H J J R T R T T T T R T R P P J A d p i i i u ; X . .                                     ",
"                            O 4 i s d s s Z ~._.'._.'.'.'.'.'.(.T J C d d i ; X X ; u u X .                                     ",
"                            . X i i f C Z F _..X.X.XoX.XoXoX.X'.T P d s s i y , . X a a X .                                     ",
"                                o 4 Q 9.(._.oX.X.X{.{..X.X.X.X}.7.) C s p f ^.3.< X i i O .                                     ",
"                                . + W 6./.{.oXoX[..X.X{.Q.Q.W.E.9.6.C s f F _.Q.1 o u u X .                                     ",
"                                . . + 6 ( w.].[.[.[..XQ.t 1 < 0 ^ ) C C ` 9._.W.1 . X X                                         ",
"                                . . # 8 W ( /.].].].Q.e.8 # 2 t ( _ Z Z 9.q.}.W.1 . . .                                         ",
"                                . # ' ' 3 6 ( 9.9.( 9 8 ' [ @X:X0.7.) _ ).}..XW.1 .                                             ",
"                                . # ] ] 8 6 ( 9.9.( 6 8 ] } $X;X0.7.7.8.!.W.W.^.1 .                                             ",
"                                . + ! 6.5.5./.].]./.( ( `.`.XXoX7.7.7.( 9 & 1 <                                                 ",
"                                . + W ^ 6.9.].|.[.].w.w.].[.[.].9.7.^ W 2 > $ $                                                 ",
"                                    + 6 ^ 9. X{.oX[.].].[.[.|.].q.^ 5 2 B.V.%.| $ . . .                                         ",
"                                    . % W 5./.].].].|.[.[.[.]./.6.W 8 r C.A.;.o.q $ $ $                                         ",
"                                        O 6 5.9.9.w.{..X.X].0.5.6 2 B.C.t.;.-.#.......| $ . . .                                 ",
"                                        $ q W ^ ^ ! E.W.W.!.5.W 2 r C.A.;.#.#.#.+.+.@.o.q $ 1 1                                 ",
"                                    . $ | | q % % % < 1 1 1 + 2 B.V.&.;.O.#.#.#.O.O.+.+.X.*.r.e.1 .                             ",
"                                    . $ ..o.8 : > > $ $ $ $ $ 8 V.A.;.:.O.#.#.#.O.+.O.+.,.>. X(.t 1                             ",
"                                    . $ X.=.C.N.N.V.%.X.X.X.X...&.-.O.O.O.O.O.O.@.@.@.,. X X.X{.Q.e.< .                         ",
"                                    . $ %.t.P.P.J.S.;.#.#.#.O.O.O.+.O.O.O.O.$.+.-.-...*.r.W.Q.Q.].!.9 %                         ",
"                                    . : V.D.L.J.P.F.;.#.O.O.#.#.O.O.O.O.+.$.1.<.A.C.8 $ < 1 1 9 6.7.^ W + .                     ",
"                                    + y C.P.N.N.N.V.&.#.O.#.#.#.O.O.O.O.$.$.<.2.D.N.: . . . . + W ( 9.6.9 <                     ",
"                                . + Q 6.9.5.y : : 8 *.@.@.#.#.#.O.O.O.$.1.<.H.D.P.N.> .         + 9 !.].Q.3.< .                 ",
"                                + 0 _ 8._ Q + . . $ | o.-.-.#.#.O.O.&.,.<.2.D.L.J.N.: .         . < e.`.|.Q.t ,                 ",
"                    . . . . . % Q 6.8.6.6 +         $ 8 N.A.-.@.O.;.A.S.G.D.P.L.P.N.: .             , 9 Q.[.~.^.1 .             ",
"                    1 1 1 1 1 9 7.q._ Q % .         . : V.A.-.@.O.&.A.S.S.S.L.L.J.N.: .             < t Q.|.].!.< .             ",
"                . 1 e.Q.Q.Q.W.Q.].!.9 +             . $ %.;.:.#.O.O.-.&.;.t.S.L.J.N.: .         . 1 3.Q.{.].w.( % .             ",
"                . 1 Q.{.Q.Q.[.|.{.!.< .             . $ ..#.#.#.O.O.#.#.#.-.A.P.P.N.: .         . 1 Q..X]./.5.W + .             ",
"                . 1 Q.~.t t Q.{.w.6.% .             . $ ..@.#.#.O.O.O.#.#.O.-.t.P.N.: .         . 1 Q.{.w.( 6 +                 ",
"                . 1 e.e.& % !./.6.Q % .             . $ ..=.>.>.>.>.=.=.=.=.=.*.A.Z.> .         . < e.!.( W + .                 ",
"                    1 < . % 6.6.0 +                 . @ z ! :X;X;X:X! c U W c E Y D O .             1 < % +                     ",
"                    . . . + Q Q % .                 = w F ~ &X*X*X&X~ Y Y Y Y Y Y F O .             . . . .                     ",
"                        . . + +                 . = p.l.z.b.M.M.K.M.z.z.z.z.z.z.z.j.= .                                         ",
"                        . . . .                 = e l.n.v.c.h.h.h.b.l.l.c.c.n.n.n.l.e =                                         ",
"                                            . = p.l.n.c.g.a.e = = = = e a.g.v.n.n.c.l.p.= .                                     ",
"                                            = e l.n.v.z.a.y.* . o o . * y.s.z.c.n.n.n.l.e *                                     ",
"                                        . = j.l.n.v.g.a.w *             - w a.g.v.n.n.c.s.y.- .                                 ",
"                                        . = j.v.v.b.f.u.* .             . - y.a.z.v.v.z.f.u.- .                                 ",
"                                        . - i.f.f.d.d.u.- .                 - w s.f.f.d.d.u.* .                                 ",
"                                        . - s.f.d.d.d.i.- .                 . * y.u.d.d.d.a.e :                                 ",
"                                        . = h.v.c.c.v.j.= .                     * e h.v.c.c.h.p.= .                             ",
"                                        , r z.M.M.M.m.x.= .                     . = x.m.M.M.M.z.r <                             ",
"                                . . . , U.T.&X%X%X%XOXY., .                     . , Y.OX&X%X%X&XT.U., .                         ",
"                                . . 2 t T.+X-X=X-X$XR.I., .                     . 2 T.+X-X=X=X*X+XI., .                         ",
"                                . 2 +X$X*X-X=X*X+XR.R.I., .                     . 5 @X-X=X=X=X*XR.I., .                         ",
"                                . 2 $X=X=X=X=X*X+XT.R.I., .                     . 2 $X=X=X=X=X*X+XI., .                         "
};
